<?xml version="1.0" encoding="utf-8"?>
<!-- Generator: Adobe Illustrator 24.0.3, SVG Export Plug-In . SVG Version: 6.00 Build 0)  -->
<svg version="1.1" xmlns="http://www.w3.org/2000/svg" xmlns:xlink="http://www.w3.org/1999/xlink" x="0px" y="0px"
	 viewBox="0 0 566.93 566.93" style="enable-background:new 0 0 566.93 566.93;" xml:space="preserve">
<style type="text/css">
	.st0{fill:#FFFFFF;stroke:#000000;stroke-width:30;stroke-miterlimit:10;stroke-dasharray:50,20;}
</style>
<g id="圖層_1">
	<path class="st0" d="M460.5,494.4H106.43c-18.72,0-33.9-15.18-33.9-33.9V106.43c0-18.72,15.18-33.9,33.9-33.9H460.5
		c18.72,0,33.9,15.18,33.9,33.9V460.5C494.4,479.22,479.22,494.4,460.5,494.4z"/>
</g>
<g id="圖層_2">
	<path class="st0" d="M169.4,135.55h228.12c14.77,0,22.73,17.32,13.12,28.53c-28.26,32.95-56.52,65.89-84.78,98.84
		c-2.65,3.09-4.12,7.01-4.16,11.07l-1.19,115.57c-0.06,5.61-2.83,10.84-7.44,14.03c-11.88,8.23-23.77,16.45-35.65,24.68
		c-11.46,7.94-27.12-0.27-27.12-14.21V269.24c0-4.45-1.72-8.74-4.8-11.95c-29.53-30.84-59.05-61.67-88.58-92.51
		C146.4,153.79,154.19,135.55,169.4,135.55z"/>
</g>
</svg>
